<?xml version="1.0" encoding="iso-8859-1"?>
<!-- Generator: Adobe Illustrator 19.0.0, SVG Export Plug-In . SVG Version: 6.00 Build 0)  -->
<svg version="1.1" id="Layer_1" xmlns="http://www.w3.org/2000/svg" xmlns:xlink="http://www.w3.org/1999/xlink" x="0px" y="0px"
	 viewBox="0 0 512 512" style="enable-background:new 0 0 512 512;" xml:space="preserve">
<path style="fill:#9E9E9E;" d="M68.267,8.533h375.467c18.85,0,34.133,15.283,34.133,34.133v426.667
	c0,18.85-15.283,34.133-34.133,34.133H68.267c-18.85,0-34.133-15.283-34.133-34.133V42.667C34.133,23.817,49.417,8.533,68.267,8.533
	z"/>
<path style="fill:#F5F5F5;" d="M68.267,8.533H409.6c18.85,0,34.133,15.283,34.133,34.133v426.667
	c0,18.85-15.283,34.133-34.133,34.133H68.267c-18.85,0-34.133-15.283-34.133-34.133V42.667C34.133,23.817,49.417,8.533,68.267,8.533
	z"/>
<path d="M443.733,512H68.267C44.706,512,25.6,492.894,25.6,469.333V42.667C25.6,19.106,44.706,0,68.267,0h375.467
	C467.294,0,486.4,19.106,486.4,42.667v426.667C486.4,492.894,467.294,512,443.733,512z M68.267,17.067
	c-14.14,0-25.6,11.46-25.6,25.6v426.667c0,14.14,11.46,25.6,25.6,25.6l0,0h375.467c14.14,0,25.6-11.46,25.6-25.6l0,0V42.667
	c0-14.14-11.46-25.6-25.6-25.6H68.267z"/>
<path style="fill:#9E9E9E;" d="M443.733,51.2v409.6c0,4.71-3.823,8.533-8.533,8.533H76.8c-4.71,0-8.533-3.823-8.533-8.533V51.2
	c0-4.71,3.823-8.533,8.533-8.533h358.4C439.91,42.667,443.733,46.49,443.733,51.2z"/>
<path style="fill:#F5F5F5;" d="M409.6,51.2v409.6c0,4.71-3.823,8.533-8.533,8.533H76.8c-4.71,0-8.533-3.823-8.533-8.533V51.2
	c0-4.71,3.823-8.533,8.533-8.533h324.267C405.777,42.667,409.6,46.49,409.6,51.2z"/>
<path d="M435.2,477.867H76.8c-9.429,0-17.067-7.637-17.067-17.067V51.2c0-9.429,7.637-17.067,17.067-17.067h358.4
	c9.429,0,17.067,7.637,17.067,17.067v409.6C452.267,470.229,444.629,477.867,435.2,477.867z M76.8,51.2v409.6h358.4V51.2H76.8z"/>
<path style="fill:#F57C00;" d="M409.6,85.333v179.2c0,4.71-3.823,8.533-8.533,8.533H110.933c-4.71,0-8.533-3.823-8.533-8.533v-179.2
	c0-4.71,3.823-8.533,8.533-8.533h290.133C405.777,76.8,409.6,80.623,409.6,85.333z"/>
<path style="fill:#FF9801;" d="M375.467,85.333v179.2c0,4.71-3.823,8.533-8.533,8.533h-256c-4.71,0-8.533-3.823-8.533-8.533v-179.2
	c0-4.71,3.823-8.533,8.533-8.533h256C371.644,76.8,375.467,80.623,375.467,85.333z"/>
<path d="M401.067,281.6H110.933c-9.429,0-17.067-7.637-17.067-17.067v-179.2c0-9.429,7.637-17.067,17.067-17.067h290.133
	c9.429,0,17.067,7.637,17.067,17.067v179.2C418.133,273.963,410.496,281.6,401.067,281.6z M110.933,85.333v179.2h290.133v-179.2
	H110.933z"/>
<g>
	<path style="fill:#607D8B;" d="M102.4,341.333h59.733l0,0v76.8c0,9.429-7.637,17.067-17.067,17.067h-25.6
		c-9.429,0-17.067-7.637-17.067-17.067V341.333L102.4,341.333z"/>
	<path style="fill:#607D8B;" d="M162.133,341.333h59.733l0,0v76.8c0,9.429-7.637,17.067-17.067,17.067h-25.6
		c-9.429,0-17.067-7.637-17.067-17.067V341.333L162.133,341.333z"/>
	<path style="fill:#607D8B;" d="M221.867,341.333H281.6l0,0v76.8c0,9.429-7.637,17.067-17.067,17.067h-25.6
		c-9.429,0-17.067-7.637-17.067-17.067V341.333L221.867,341.333z"/>
	<path style="fill:#607D8B;" d="M281.6,341.333h59.733l0,0v76.8c0,9.429-7.637,17.067-17.067,17.067h-25.6
		c-9.429,0-17.067-7.637-17.067-17.067V341.333L281.6,341.333z"/>
	<path style="fill:#607D8B;" d="M341.333,341.333H409.6l0,0v76.8c0,9.429-7.637,17.067-17.067,17.067H358.4
		c-9.429,0-17.067-7.637-17.067-17.067V341.333L341.333,341.333z"/>
</g>
<path d="M145.067,443.733h-25.6c-14.14,0-25.6-11.46-25.6-25.6v-76.8c0-4.71,3.823-8.533,8.533-8.533h59.733
	c4.71,0,8.533,3.823,8.533,8.533v76.8C170.667,432.273,159.206,443.733,145.067,443.733z M110.933,349.867v68.267
	c0,4.71,3.823,8.533,8.533,8.533h25.6c4.71,0,8.533-3.823,8.533-8.533v-68.267H110.933z"/>
<path d="M162.133,409.6H102.4c-4.71,0-8.533-3.823-8.533-8.533s3.823-8.533,8.533-8.533h59.733c4.71,0,8.533,3.823,8.533,8.533
	S166.844,409.6,162.133,409.6z"/>
<path d="M204.8,443.733h-25.6c-14.14,0-25.6-11.46-25.6-25.6v-76.8c0-4.71,3.823-8.533,8.533-8.533h59.733
	c4.71,0,8.533,3.823,8.533,8.533v76.8C230.4,432.273,218.94,443.733,204.8,443.733z M170.667,349.867v68.267
	c0,4.71,3.823,8.533,8.533,8.533h25.6c4.71,0,8.533-3.823,8.533-8.533v-68.267H170.667z"/>
<path d="M221.867,409.6h-59.733c-4.71,0-8.533-3.823-8.533-8.533s3.823-8.533,8.533-8.533h59.733c4.71,0,8.533,3.823,8.533,8.533
	S226.577,409.6,221.867,409.6z"/>
<path d="M264.533,443.733h-25.6c-14.14,0-25.6-11.46-25.6-25.6v-76.8c0-4.71,3.823-8.533,8.533-8.533H281.6
	c4.71,0,8.533,3.823,8.533,8.533v76.8C290.133,432.273,278.673,443.733,264.533,443.733z M230.4,349.867v68.267
	c0,4.71,3.823,8.533,8.533,8.533h25.6c4.71,0,8.533-3.823,8.533-8.533v-68.267H230.4z"/>
<path d="M281.6,409.6h-59.733c-4.71,0-8.533-3.823-8.533-8.533s3.823-8.533,8.533-8.533H281.6c4.71,0,8.533,3.823,8.533,8.533
	S286.31,409.6,281.6,409.6z"/>
<path d="M324.267,443.733h-25.6c-14.14,0-25.6-11.46-25.6-25.6v-76.8c0-4.71,3.823-8.533,8.533-8.533h59.733
	c4.71,0,8.533,3.823,8.533,8.533v76.8C349.867,432.273,338.406,443.733,324.267,443.733z M290.133,349.867v68.267
	c0,4.71,3.823,8.533,8.533,8.533h25.6c4.71,0,8.533-3.823,8.533-8.533v-68.267H290.133z"/>
<path d="M341.333,409.6H281.6c-4.71,0-8.533-3.823-8.533-8.533s3.823-8.533,8.533-8.533h59.733c4.71,0,8.533,3.823,8.533,8.533
	S346.044,409.6,341.333,409.6z"/>
<path d="M392.533,443.733H358.4c-14.14,0-25.6-11.46-25.6-25.6v-76.8c0-4.71,3.823-8.533,8.533-8.533H409.6
	c4.71,0,8.533,3.823,8.533,8.533v76.8C418.133,432.273,406.673,443.733,392.533,443.733z M349.867,349.867v68.267
	c0,4.71,3.823,8.533,8.533,8.533h34.133c4.71,0,8.533-3.823,8.533-8.533v-68.267H349.867z"/>
<path d="M409.6,409.6h-68.267c-4.71,0-8.533-3.823-8.533-8.533s3.823-8.533,8.533-8.533H409.6c4.71,0,8.533,3.823,8.533,8.533
	S414.31,409.6,409.6,409.6z"/>
<path d="M119.467,315.733c-2.261-0.034-4.42-0.913-6.059-2.475c-0.777-0.811-1.382-1.766-1.792-2.816
	c-0.435-1.024-0.666-2.125-0.683-3.243c-0.043-0.572-0.043-1.135,0-1.707c0.094-0.538,0.265-1.05,0.512-1.536
	c0.41-1.05,1.015-2.005,1.792-2.816c0.828-0.751,1.783-1.357,2.816-1.792c1.527-0.683,3.226-0.862,4.864-0.512
	c0.563,0.077,1.109,0.256,1.621,0.512c0.546,0.188,1.058,0.444,1.536,0.768l1.28,1.024c3.345,3.319,3.371,8.721,0.051,12.066
	c-0.017,0.017-0.034,0.034-0.051,0.051l-1.28,1.024c-0.478,0.324-0.99,0.58-1.536,0.768c-0.512,0.256-1.058,0.427-1.621,0.512
	L119.467,315.733z"/>
<path d="M153.6,315.733c-2.261-0.034-4.42-0.913-6.059-2.475c-1.596-1.613-2.492-3.789-2.475-6.059
	c0.017-1.118,0.247-2.219,0.683-3.243c0.435-1.033,1.041-1.988,1.792-2.816c2.014-1.997,4.898-2.859,7.68-2.304
	c0.563,0.077,1.109,0.256,1.621,0.512c0.546,0.188,1.058,0.444,1.536,0.768l1.28,1.024c3.345,3.319,3.371,8.721,0.051,12.066
	c-0.017,0.017-0.034,0.034-0.051,0.051l-1.28,1.024c-0.478,0.324-0.99,0.58-1.536,0.768c-0.512,0.256-1.058,0.427-1.621,0.512
	L153.6,315.733z"/>
<path d="M187.733,315.733c-2.27,0.017-4.446-0.879-6.059-2.475c-0.384-0.418-0.725-0.879-1.024-1.365
	c-0.341-0.435-0.597-0.922-0.768-1.451c-0.307-0.478-0.538-0.99-0.683-1.536c-0.043-0.572-0.043-1.135,0-1.707
	c0-4.71,3.823-8.533,8.533-8.533c4.71,0,8.533,3.823,8.533,8.533c0.043,0.572,0.043,1.135,0,1.707
	c-0.094,0.538-0.265,1.05-0.512,1.536c-0.171,0.521-0.427,1.015-0.768,1.451l-1.024,1.365
	C192.307,314.897,190.063,315.793,187.733,315.733z"/>
<path d="M221.867,315.733h-1.707l-1.536-0.512c-0.546-0.188-1.058-0.444-1.536-0.768c-0.444-0.316-0.879-0.657-1.28-1.024
	c-1.638-1.655-2.534-3.9-2.475-6.229c0.017-1.118,0.247-2.219,0.683-3.243c0.41-1.05,1.015-2.005,1.792-2.816l1.28-1.024
	c0.478-0.324,0.99-0.58,1.536-0.768c0.469-0.307,0.99-0.538,1.536-0.683c1.664-0.324,3.388-0.145,4.949,0.512
	c1.033,0.435,1.988,1.041,2.816,1.792c3.345,3.319,3.371,8.721,0.051,12.066c-0.017,0.017-0.034,0.034-0.051,0.051
	c-0.828,0.751-1.783,1.357-2.816,1.792C224.094,315.375,222.993,315.665,221.867,315.733z"/>
<path d="M256,315.733c-4.71-0.026-8.508-3.866-8.482-8.585c0.026-4.71,3.866-8.508,8.585-8.482c4.71,0.026,8.508,3.866,8.482,8.585
	c-0.017,2.261-0.922,4.42-2.526,6.007C260.42,314.82,258.261,315.699,256,315.733z"/>
<path d="M290.133,315.733c-2.261-0.034-4.42-0.913-6.059-2.475c-0.751-0.828-1.357-1.783-1.792-2.816
	c-0.435-1.024-0.666-2.125-0.683-3.243c-0.017-2.27,0.879-4.446,2.475-6.059c3.319-3.345,8.721-3.371,12.066-0.051
	c1.63,1.613,2.543,3.814,2.526,6.11c-0.017,1.118-0.247,2.219-0.683,3.243c-0.435,1.033-1.041,1.988-1.792,2.816l-1.365,1.024
	c-0.435,0.341-0.93,0.597-1.451,0.768c-0.512,0.256-1.058,0.427-1.621,0.512L290.133,315.733z"/>
<path d="M324.267,315.733c-2.27,0.017-4.446-0.879-6.059-2.475c-3.345-3.345-3.345-8.772,0-12.117c3.345-3.345,8.772-3.345,12.117,0
	l1.024,1.365c0.333,0.435,0.597,0.93,0.768,1.451c0.247,0.486,0.418,0.998,0.512,1.536c0.043,0.572,0.043,1.135,0,1.707
	c0,4.71-3.823,8.533-8.533,8.533H324.267z"/>
<path d="M358.4,315.733c-4.71-0.026-8.508-3.866-8.482-8.585c0.026-4.71,3.866-8.508,8.585-8.482
	c4.719,0.026,8.508,3.866,8.482,8.585c-0.017,2.261-0.922,4.42-2.526,6.007C362.82,314.82,360.661,315.699,358.4,315.733z"/>
<path d="M392.533,315.733c-2.261-0.034-4.42-0.913-6.059-2.475c-1.596-1.613-2.492-3.789-2.475-6.059
	c0.017-1.118,0.247-2.219,0.683-3.243c0.435-1.033,1.041-1.988,1.792-2.816c3.319-3.345,8.721-3.371,12.066-0.051
	c0.017,0.017,0.034,0.034,0.051,0.051c0.751,0.828,1.357,1.783,1.792,2.816c0.435,1.024,0.666,2.125,0.683,3.243
	c0.043,0.572,0.043,1.135,0,1.707c-0.094,0.538-0.264,1.05-0.512,1.536c-0.188,0.546-0.444,1.058-0.768,1.536l-1.024,1.28
	c-0.828,0.751-1.783,1.357-2.816,1.792C394.871,315.511,393.702,315.742,392.533,315.733z"/>
<rect x="136.533" y="128" style="fill:#00BCD4;" width="238.933" height="102.4"/>
<path style="fill:#37474F;" d="M375.467,128v102.4h-96.341c-28.279-24.934-30.985-68.079-6.042-96.358
	c1.886-2.142,3.908-4.156,6.042-6.042H375.467z"/>
<path style="fill:#607D8B;" d="M341.333,128v102.4h-68.779c-11.127-14.72-16.956-32.759-16.555-51.2
	c-0.393-18.441,5.444-36.48,16.555-51.2H341.333z"/>
<path d="M375.467,238.933h-96.341c-2.074,0-4.079-0.759-5.632-2.133c-31.812-28.058-34.859-76.587-6.801-108.399
	c2.125-2.406,4.395-4.676,6.801-6.801c1.553-1.374,3.558-2.133,5.632-2.133h96.341c4.71,0,8.533,3.823,8.533,8.533v102.4
	C384,235.11,380.177,238.933,375.467,238.933z M282.453,221.867h84.48v-85.333h-84.48c-23.561,23.091-23.953,60.911-0.862,84.471
	C281.873,221.295,282.163,221.585,282.453,221.867z"/>
<path d="M279.125,238.933H136.533c-4.71,0-8.533-3.823-8.533-8.533V128c0-4.71,3.823-8.533,8.533-8.533h142.592
	c4.71,0.009,8.525,3.831,8.525,8.542c0,2.441-1.058,4.77-2.893,6.391c-24.738,21.82-27.11,59.571-5.291,84.309
	c1.647,1.869,3.422,3.635,5.291,5.291c3.533,3.115,3.874,8.508,0.759,12.041C283.895,237.875,281.566,238.933,279.125,238.933z
	 M145.067,221.867h115.371c-17.254-25.83-17.254-59.503,0-85.333H145.067V221.867z"/>
<g>
	<circle style="fill:#424242;" cx="187.733" cy="179.2" r="17.067"/>
	<circle style="fill:#424242;" cx="324.267" cy="179.2" r="17.067"/>
</g>
<path d="M187.733,204.8c-14.14,0-25.6-11.46-25.6-25.6c0-14.14,11.46-25.6,25.6-25.6c14.14,0,25.6,11.46,25.6,25.6
	C213.333,193.34,201.873,204.8,187.733,204.8z M187.733,170.667c-4.71,0-8.533,3.823-8.533,8.533s3.823,8.533,8.533,8.533
	c4.71,0,8.533-3.823,8.533-8.533S192.444,170.667,187.733,170.667z"/>
<path d="M324.267,204.8c-14.14,0-25.6-11.46-25.6-25.6c0-14.14,11.46-25.6,25.6-25.6c14.14,0,25.6,11.46,25.6,25.6
	C349.867,193.34,338.406,204.8,324.267,204.8z M324.267,170.667c-4.71,0-8.533,3.823-8.533,8.533s3.823,8.533,8.533,8.533
	s8.533-3.823,8.533-8.533S328.977,170.667,324.267,170.667z"/>
<g>
</g>
<g>
</g>
<g>
</g>
<g>
</g>
<g>
</g>
<g>
</g>
<g>
</g>
<g>
</g>
<g>
</g>
<g>
</g>
<g>
</g>
<g>
</g>
<g>
</g>
<g>
</g>
<g>
</g>
</svg>
